<?xml version="1.0" encoding="UTF-8"?>
<svg version="1.1" xmlns="http://www.w3.org/2000/svg" width="251" height="112">
<path d="M0 0 C1.32 0.33 2.64 0.66 4 1 C3.01 4.96 2.02 8.92 1 13 C22.78 13 44.56 13 67 13 C67 22.24 67 31.48 67 41 C65.35 40.67 63.7 40.34 62 40 C60.69799805 37.86694336 60.69799805 37.86694336 59.76171875 35.08984375 C59.44936279 34.199021 59.13700684 33.30819824 58.81518555 32.39038086 C58.44304932 31.25093018 58.07091309 30.11147949 57.6875 28.9375 C56.470625 25.328125 55.25375 21.71875 54 18 C42.45 17.67 30.9 17.34 19 17 C19 31.52 19 46.04 19 61 C25.6 61 32.2 61 39 61 C39.4125 59.515 39.825 58.03 40.25 56.5 C41.69030641 51.66222439 43.61501779 47.44100136 46 43 C47.98 43.495 47.98 43.495 50 44 C50 56.54 50 69.08 50 82 C48.35 82 46.7 82 45 82 C43.99580363 79.5433053 42.99649499 77.08481647 42 74.625 C41.71382813 73.92632812 41.42765625 73.22765625 41.1328125 72.5078125 C39 67.2265625 39 67.2265625 39 65 C32.4 65 25.8 65 19 65 C19 78.2 19 91.4 19 105 C24.445 105.495 24.445 105.495 30 106 C30 107.32 30 108.64 30 110 C18.12 110 6.24 110 -6 110 C-6 108.68 -6 107.36 -6 106 C-0.555 105.505 -0.555 105.505 5 105 C5 76.29 5 47.58 5 18 C-2.38726078 17.51195068 -2.38726078 17.51195068 -7 21 C-10.88461047 22.29487016 -14.55883956 22.1232604 -18.60546875 22.09765625 C-19.44467361 22.0962413 -20.28387848 22.09482635 -21.14851379 22.09336853 C-23.82821216 22.08777215 -26.5078269 22.07522035 -29.1875 22.0625 C-31.00455608 22.05748453 -32.82161348 22.05292171 -34.63867188 22.04882812 C-39.09248013 22.03780391 -43.54622589 22.02054178 -48 22 C-48.06566162 22.78793945 -48.13132324 23.57587891 -48.19897461 24.38769531 C-48.79931641 31.59179688 -49.3996582 38.79589844 -50 46 C-49.30003906 45.84015625 -48.60007812 45.6803125 -47.87890625 45.515625 C-35.52818929 43.30355629 -22.84314292 45.30330313 -12.3203125 52.22265625 C-3.86146885 58.70207352 -0.15122506 65.59564738 2 76 C3.02132773 84.60833372 -0.16441705 92.94696453 -5.14453125 99.89453125 C-11.4151272 107.01000749 -19.60728848 111.36147405 -29.03515625 112.17578125 C-40.70608991 112.88618591 -50.0656823 112.24065727 -59.4375 104.625 C-64.47756852 99.78857061 -66.15806613 95.93004759 -66.5 88.9375 C-66.40361407 84.62155218 -66.27770299 83.37270665 -63.625 79.8125 C-59.39695475 76.89313542 -57.21646274 76.79897727 -52.203125 77.4296875 C-50 78 -50 78 -47.375 80.25 C-46 83 -46 83 -46.25 85.8125 C-46.4975 86.534375 -46.745 87.25625 -47 88 C-48.485 88.495 -48.485 88.495 -50 89 C-52.3490853 93.3272624 -52.72711724 97.45508964 -51.375 102.1875 C-49.17125723 105.09243365 -47.50060363 105.8133547 -44 107 C-38.17525344 107.61429983 -32.93659192 107.82996796 -27.5 105.5 C-19.88041631 97.88041631 -17.83091886 89.735939 -17.625 79.1875 C-17.632745 70.82483557 -19.25996131 63.35940683 -24.3125 56.5 C-30.680723 50.57607163 -36.17017196 50.68512935 -44.59765625 50.796875 C-48.00296683 50.92548706 -48.00296683 50.92548706 -51.30859375 51.640625 C-52.19675781 51.75921875 -53.08492187 51.8778125 -54 52 C-54.66 51.34 -55.32 50.68 -56 50 C-55.98339844 47.62426758 -55.98339844 47.62426758 -55.609375 44.64453125 C-55.47772949 43.55342041 -55.34608398 42.46230957 -55.21044922 41.33813477 C-55.05850098 40.17467529 -54.90655273 39.01121582 -54.75 37.8125 C-54.53174561 36.04894165 -54.53174561 36.04894165 -54.30908203 34.24975586 C-53.88321264 30.83174221 -53.44279607 27.41585538 -53 24 C-52.79347984 22.34905709 -52.58763395 20.69802952 -52.3828125 19.046875 C-51.17755213 9.5326564 -51.17755213 9.5326564 -50 6 C-48.68805664 5.98018066 -47.37611328 5.96036133 -46.02441406 5.93994141 C-41.15638045 5.8638625 -36.28864484 5.77514836 -31.42089844 5.68261719 C-29.31418746 5.64433694 -27.20741133 5.6094824 -25.10058594 5.578125 C-22.07202879 5.53245402 -19.04391978 5.47446255 -16.015625 5.4140625 C-14.60292328 5.39673569 -14.60292328 5.39673569 -13.16168213 5.37905884 C-12.28107117 5.35918915 -11.40046021 5.33931946 -10.49316406 5.31884766 C-9.33400482 5.29886215 -9.33400482 5.29886215 -8.15142822 5.2784729 C-5.68104666 4.95871586 -4.10220871 4.33093501 -2 3 C-1.34 2.01 -0.68 1.02 0 0 Z " fill="#FFF1E9" transform="translate(66,0)"/>
<path d="M0 0 C9.24 0 18.48 0 28 0 C35.23424795 17.5405738 42.19543312 35.1569031 48.95922852 52.88305664 C49.27150894 53.70030716 49.58378937 54.51755768 49.90553284 55.35957336 C50.48978984 56.88939114 51.07276583 58.41969907 51.65415955 59.9506073 C53.33339035 64.34931308 55.11815864 68.6839149 57 73 C59.53970375 70.46029625 60.49525676 67.64543013 61.78149414 64.36303711 C62.05327988 63.68160141 62.32506561 63.00016571 62.60508728 62.29808044 C63.50320928 60.04303081 64.39408641 57.78518819 65.28515625 55.52734375 C65.90714389 53.96297163 66.52966373 52.39881102 67.1526947 50.83485413 C68.79244513 46.7155086 70.42642387 42.59390029 72.05877686 38.47161865 C74.67408085 31.8687116 77.29632869 25.26856939 79.92190361 18.66974068 C80.84004699 16.35899444 81.75466705 14.04687564 82.66896057 11.73460388 C83.22848909 10.32554514 83.78812953 8.91653084 84.34790039 7.50756836 C84.6029837 6.85975403 84.85806702 6.2119397 85.12088013 5.54449463 C86.88636524 1.11363476 86.88636524 1.11363476 88 0 C89.85369611 -0.08737645 91.71067541 -0.10698153 93.56640625 -0.09765625 C94.69111328 -0.09443359 95.81582031 -0.09121094 96.97460938 -0.08789062 C98.15861328 -0.07951172 99.34261719 -0.07113281 100.5625 -0.0625 C101.75037109 -0.05798828 102.93824219 -0.05347656 104.16210938 -0.04882812 C107.10812226 -0.03699675 110.05403681 -0.02051287 113 0 C112.67 1.32 112.34 2.64 112 4 C108.7 4.33 105.4 4.66 102 5 C102 33.71 102 62.42 102 92 C107.445 92.495 107.445 92.495 113 93 C113 94.32 113 95.64 113 97 C101.12 97 89.24 97 77 97 C77 95.68 77 94.36 77 93 C80.63 92.67 84.26 92.34 88 92 C87.67 66.26 87.34 40.52 87 14 C84.710625 19.713125 82.42125 25.42625 80.0625 31.3125 C79.29204346 33.23046387 78.52158691 35.14842773 77.7277832 37.12451172 C73.84952175 46.78982906 70.03183999 56.47518436 66.29296875 66.1953125 C65.15007117 69.14901643 64.0059137 72.10222898 62.86129761 75.05526733 C62.12041855 76.97679205 61.38516267 78.90049435 60.6555481 80.82632446 C59.63311489 83.52387797 58.59205537 86.21353852 57.546875 88.90234375 C57.24641769 89.71087799 56.94596039 90.51941223 56.63639832 91.35244751 C55.76074219 93.57397461 55.76074219 93.57397461 54 97 C51.88995361 97.71412659 51.88995361 97.71412659 50 98 C43.04143251 80.75016645 36.27464111 63.43352816 29.625 46.0625 C28.30736018 42.6239883 26.98919183 39.1856808 25.67025757 35.74766541 C24.86133813 33.63874248 24.05319183 31.52952275 23.2460022 29.41993713 C22.8781662 28.46030563 22.5103302 27.50067413 22.13134766 26.51196289 C21.8150943 25.68579971 21.49884094 24.85963654 21.17300415 24.00843811 C19.47784147 19.66080471 17.73306556 15.3326639 16 11 C15.67 36.74 15.34 62.48 15 89 C17.97 89.99 20.94 90.98 24 92 C25.485 92.495 25.485 92.495 27 93 C27 94.32 27 95.64 27 97 C18.09 97 9.18 97 0 97 C0 95.68 0 94.36 0 93 C1.4562545 92.32880451 2.91507867 91.66318193 4.375 91 C5.18710938 90.62875 5.99921875 90.2575 6.8359375 89.875 C9 89 9 89 11 89 C11 61.28 11 33.56 11 5 C7.7 4.67 4.4 4.34 1 4 C0.67 2.68 0.34 1.36 0 0 Z " fill="#FFF1E9" transform="translate(138,13)"/>
<path d="M0 0 C2.9375 2.0625 2.9375 2.0625 5 5 C5.06641554 8.85210127 4.87229157 10.99848005 2.3125 13.9375 C-0.73602877 15.33817538 -2.67926952 15.4842732 -6 15 C-8.375 13.5 -8.375 13.5 -10 11 C-10.58428517 8.0368395 -10.39344818 6.09840439 -10 3 C-7.21376523 -0.42921203 -4.23976577 -0.69220666 0 0 Z " fill="#FFF1E9" transform="translate(132,96)"/>
</svg>
